<svg width="179" height="30" viewBox="0 0 179 30" fill="none" xmlns="http://www.w3.org/2000/svg">
<path d="M10.34 3.512C14.636 3.512 17.828 4.592 19.916 6.752C22.004 8.888 23.048 11.96 23.048 15.968C23.048 18.584 22.532 20.876 21.5 22.844C20.492 24.788 19.016 26.3 17.072 27.38C15.128 28.46 12.776 29 10.016 29C9.656 29 9.176 28.988 8.576 28.964C7.976 28.94 7.352 28.928 6.704 28.928C6.08 28.904 5.504 28.892 4.976 28.892C4.136 28.892 3.308 28.904 2.492 28.928C1.676 28.928 1.016 28.952 0.512 29V28.28C1.328 28.232 1.94 28.136 2.348 27.992C2.78 27.848 3.068 27.56 3.212 27.128C3.356 26.696 3.428 26.048 3.428 25.184V7.328C3.428 6.44 3.356 5.792 3.212 5.384C3.068 4.952 2.78 4.664 2.348 4.52C1.94 4.352 1.328 4.256 0.512 4.232V3.512C1.016 3.536 1.676 3.572 2.492 3.62C3.308 3.644 4.112 3.644 4.904 3.62C5.744 3.596 6.692 3.572 7.748 3.548C8.804 3.524 9.668 3.512 10.34 3.512ZM9.44 4.16C8.336 4.16 7.616 4.364 7.28 4.772C6.944 5.18 6.776 6.008 6.776 7.256V25.256C6.776 26.504 6.944 27.332 7.28 27.74C7.64 28.148 8.372 28.352 9.476 28.352C12.092 28.352 14.12 27.884 15.56 26.948C17 25.988 18.008 24.596 18.584 22.772C19.16 20.948 19.448 18.728 19.448 16.112C19.448 13.424 19.124 11.204 18.476 9.452C17.852 7.676 16.808 6.356 15.344 5.492C13.904 4.604 11.936 4.16 9.44 4.16ZM30.9958 29.252C30.0118 29.252 29.1598 29.072 28.4398 28.712C27.7198 28.328 27.1678 27.8 26.7838 27.128C26.4238 26.456 26.2438 25.676 26.2438 24.788C26.2438 23.732 26.4838 22.868 26.9638 22.196C27.4678 21.524 28.1038 20.984 28.8718 20.576C29.6398 20.168 30.4438 19.832 31.2838 19.568C32.1478 19.28 32.9638 19.016 33.7318 18.776C34.4998 18.512 35.1238 18.212 35.6038 17.876C36.1078 17.54 36.3598 17.096 36.3598 16.544V14.312C36.3598 13.304 36.2038 12.536 35.8918 12.008C35.6038 11.48 35.2078 11.132 34.7038 10.964C34.1998 10.772 33.6358 10.676 33.0118 10.676C32.4118 10.676 31.7638 10.76 31.0678 10.928C30.3958 11.096 29.8558 11.444 29.4478 11.972C29.9038 12.068 30.2998 12.308 30.6358 12.692C30.9718 13.076 31.1398 13.568 31.1398 14.168C31.1398 14.768 30.9478 15.248 30.5638 15.608C30.1798 15.944 29.6878 16.112 29.0878 16.112C28.3918 16.112 27.8758 15.896 27.5398 15.464C27.2278 15.008 27.0718 14.504 27.0718 13.952C27.0718 13.328 27.2278 12.824 27.5398 12.44C27.8518 12.056 28.2478 11.696 28.7278 11.36C29.2798 10.976 29.9878 10.652 30.8518 10.388C31.7398 10.1 32.7358 9.956 33.8398 9.956C34.8238 9.956 35.6638 10.076 36.3598 10.316C37.0558 10.532 37.6318 10.856 38.0878 11.288C38.7118 11.864 39.1198 12.572 39.3118 13.412C39.5038 14.228 39.5998 15.212 39.5998 16.364V26.372C39.5998 26.972 39.6838 27.404 39.8518 27.668C40.0438 27.932 40.3318 28.064 40.7158 28.064C40.9798 28.064 41.2318 28.004 41.4718 27.884C41.7118 27.764 41.9998 27.572 42.3358 27.308L42.7318 27.92C42.2278 28.304 41.7478 28.628 41.2918 28.892C40.8358 29.132 40.2238 29.252 39.4558 29.252C38.7598 29.252 38.1838 29.132 37.7278 28.892C37.2718 28.652 36.9238 28.304 36.6838 27.848C36.4678 27.368 36.3598 26.768 36.3598 26.048C35.7118 27.128 34.9318 27.932 34.0198 28.46C33.1318 28.988 32.1238 29.252 30.9958 29.252ZM32.2918 27.812C33.0838 27.812 33.8158 27.584 34.4878 27.128C35.1838 26.672 35.8078 25.988 36.3598 25.076V18.02C36.0718 18.428 35.6518 18.776 35.0998 19.064C34.5478 19.328 33.9478 19.604 33.2998 19.892C32.6518 20.156 32.0278 20.48 31.4278 20.864C30.8518 21.224 30.3718 21.704 29.9878 22.304C29.6038 22.904 29.4118 23.684 29.4118 24.644C29.4118 25.604 29.6638 26.372 30.1678 26.948C30.6958 27.524 31.4038 27.812 32.2918 27.812ZM55.9095 9.956C56.8215 9.956 57.5775 10.076 58.1775 10.316C58.8015 10.556 59.3175 10.892 59.7255 11.324C60.1815 11.804 60.5055 12.404 60.6975 13.124C60.8895 13.844 60.9855 14.816 60.9855 16.04V25.652C60.9855 26.66 61.1895 27.344 61.5975 27.704C62.0295 28.064 62.7375 28.244 63.7215 28.244V29C63.3135 28.976 62.6895 28.952 61.8495 28.928C61.0095 28.88 60.1935 28.856 59.4015 28.856C58.6095 28.856 57.8295 28.88 57.0615 28.928C56.3175 28.952 55.7535 28.976 55.3695 29V28.244C56.2335 28.244 56.8455 28.064 57.2055 27.704C57.5655 27.344 57.7455 26.66 57.7455 25.652V15.248C57.7455 14.504 57.6855 13.82 57.5655 13.196C57.4455 12.572 57.1695 12.068 56.7375 11.684C56.3295 11.3 55.6935 11.108 54.8295 11.108C53.8215 11.108 52.9335 11.396 52.1655 11.972C51.4215 12.548 50.8335 13.34 50.4015 14.348C49.9935 15.332 49.7895 16.436 49.7895 17.66V25.652C49.7895 26.66 49.9695 27.344 50.3295 27.704C50.6895 28.064 51.3015 28.244 52.1655 28.244V29C51.7815 28.976 51.2055 28.952 50.4375 28.928C49.6935 28.88 48.9255 28.856 48.1335 28.856C47.3415 28.856 46.5255 28.88 45.6855 28.928C44.8455 28.952 44.2215 28.976 43.8135 29V28.244C44.7975 28.244 45.4935 28.064 45.9015 27.704C46.3335 27.344 46.5495 26.66 46.5495 25.652V14.384C46.5495 13.304 46.3575 12.512 45.9735 12.008C45.5895 11.48 44.8695 11.216 43.8135 11.216V10.46C44.5815 10.532 45.3255 10.568 46.0455 10.568C46.7415 10.568 47.4015 10.532 48.0255 10.46C48.6735 10.364 49.2615 10.232 49.7895 10.064V14.312C50.4135 12.68 51.2775 11.552 52.3815 10.928C53.5095 10.28 54.6855 9.956 55.9095 9.956ZM69.398 1.46C70.022 1.46 70.562 1.688 71.018 2.144C71.474 2.6 71.702 3.14 71.702 3.764C71.702 4.388 71.474 4.928 71.018 5.384C70.562 5.84 70.022 6.068 69.398 6.068C68.774 6.068 68.234 5.84 67.778 5.384C67.322 4.928 67.094 4.388 67.094 3.764C67.094 3.14 67.322 2.6 67.778 2.144C68.234 1.688 68.774 1.46 69.398 1.46ZM71.27 10.064V25.652C71.27 26.66 71.474 27.344 71.882 27.704C72.314 28.064 73.022 28.244 74.006 28.244V29C73.598 28.976 72.974 28.952 72.134 28.928C71.318 28.88 70.49 28.856 69.65 28.856C68.834 28.856 68.006 28.88 67.166 28.928C66.326 28.952 65.702 28.976 65.294 29V28.244C66.278 28.244 66.974 28.064 67.382 27.704C67.814 27.344 68.03 26.66 68.03 25.652V14.384C68.03 13.304 67.838 12.512 67.454 12.008C67.07 11.48 66.35 11.216 65.294 11.216V10.46C66.062 10.532 66.806 10.568 67.526 10.568C68.222 10.568 68.882 10.532 69.506 10.46C70.154 10.364 70.742 10.232 71.27 10.064ZM84.5889 9.956C86.7009 9.956 88.3449 10.604 89.5209 11.9C90.7209 13.172 91.3209 15.164 91.3209 17.876H78.6129L78.5769 17.192H87.8649C87.9129 16.016 87.8169 14.936 87.5769 13.952C87.3369 12.944 86.9529 12.14 86.4249 11.54C85.9209 10.94 85.2609 10.64 84.4449 10.64C83.3409 10.64 82.3569 11.192 81.4929 12.296C80.6529 13.4 80.1489 15.152 79.9809 17.552L80.0889 17.696C80.0409 18.056 80.0049 18.452 79.9809 18.884C79.9569 19.316 79.9449 19.748 79.9449 20.18C79.9449 21.812 80.2089 23.216 80.7369 24.392C81.2649 25.568 81.9489 26.468 82.7889 27.092C83.6529 27.692 84.5409 27.992 85.4529 27.992C86.1729 27.992 86.8569 27.884 87.5049 27.668C88.1529 27.428 88.7529 27.044 89.3049 26.516C89.8569 25.988 90.3369 25.28 90.7449 24.392L91.4649 24.68C91.2009 25.472 90.7689 26.24 90.1689 26.984C89.5689 27.728 88.8129 28.34 87.9009 28.82C86.9889 29.276 85.9329 29.504 84.7329 29.504C83.0049 29.504 81.5169 29.108 80.2689 28.316C79.0449 27.524 78.0969 26.432 77.4249 25.04C76.7769 23.624 76.4529 22.004 76.4529 20.18C76.4529 18.068 76.7889 16.256 77.4609 14.744C78.1329 13.208 79.0809 12.032 80.3049 11.216C81.5289 10.376 82.9569 9.956 84.5889 9.956ZM99.7758 0.775999V25.652C99.7758 26.66 99.9798 27.344 100.388 27.704C100.82 28.064 101.528 28.244 102.512 28.244V29C102.104 28.976 101.48 28.952 100.64 28.928C99.8238 28.88 98.9958 28.856 98.1558 28.856C97.3398 28.856 96.5118 28.88 95.6718 28.928C94.8318 28.952 94.2078 28.976 93.7998 29V28.244C94.7838 28.244 95.4798 28.064 95.8878 27.704C96.3198 27.344 96.5358 26.66 96.5358 25.652V5.096C96.5358 4.016 96.3438 3.224 95.9598 2.72C95.5758 2.192 94.8558 1.928 93.7998 1.928V1.172C94.5678 1.244 95.3118 1.28 96.0318 1.28C96.7278 1.28 97.3878 1.244 98.0118 1.172C98.6598 1.076 99.2478 0.943999 99.7758 0.775999ZM128.833 29V28.28C129.649 28.232 130.261 28.136 130.669 27.992C131.101 27.848 131.389 27.56 131.533 27.128C131.677 26.696 131.749 26.048 131.749 25.184V7.328C131.749 6.44 131.677 5.792 131.533 5.384C131.389 4.952 131.101 4.664 130.669 4.52C130.261 4.352 129.649 4.256 128.833 4.232V3.512C129.385 3.536 130.081 3.56 130.921 3.584C131.761 3.608 132.589 3.62 133.405 3.62C134.341 3.62 135.217 3.608 136.033 3.584C136.849 3.56 137.509 3.536 138.013 3.512V4.232C137.197 4.256 136.573 4.352 136.141 4.52C135.733 4.664 135.457 4.952 135.313 5.384C135.169 5.792 135.097 6.44 135.097 7.328V25.184C135.097 26.048 135.169 26.696 135.313 27.128C135.457 27.56 135.733 27.848 136.141 27.992C136.573 28.136 137.197 28.232 138.013 28.28V29C137.509 28.952 136.849 28.928 136.033 28.928C135.217 28.904 134.341 28.892 133.405 28.892C132.589 28.892 131.761 28.904 130.921 28.928C130.081 28.928 129.385 28.952 128.833 29ZM113.785 29V28.28C114.601 28.232 115.213 28.136 115.621 27.992C116.053 27.848 116.341 27.56 116.485 27.128C116.629 26.696 116.701 26.048 116.701 25.184V7.328C116.701 6.44 116.629 5.792 116.485 5.384C116.341 4.952 116.053 4.664 115.621 4.52C115.213 4.352 114.601 4.256 113.785 4.232V3.512C114.289 3.536 114.949 3.56 115.765 3.584C116.581 3.608 117.457 3.62 118.393 3.62C119.233 3.62 120.061 3.608 120.877 3.584C121.717 3.56 122.413 3.536 122.965 3.512V4.232C122.149 4.256 121.525 4.352 121.093 4.52C120.685 4.664 120.409 4.952 120.265 5.384C120.121 5.792 120.049 6.44 120.049 7.328V25.184C120.049 26.048 120.121 26.696 120.265 27.128C120.409 27.56 120.685 27.848 121.093 27.992C121.525 28.136 122.149 28.232 122.965 28.28V29C122.413 28.952 121.717 28.928 120.877 28.928C120.061 28.904 119.233 28.892 118.393 28.892C117.457 28.892 116.581 28.904 115.765 28.928C114.949 28.928 114.289 28.952 113.785 29ZM118.789 16.544V15.824H133.009V16.544H118.789ZM145.5 29.252C144.516 29.252 143.664 29.072 142.944 28.712C142.224 28.328 141.672 27.8 141.288 27.128C140.928 26.456 140.748 25.676 140.748 24.788C140.748 23.732 140.988 22.868 141.468 22.196C141.972 21.524 142.608 20.984 143.376 20.576C144.144 20.168 144.948 19.832 145.788 19.568C146.652 19.28 147.468 19.016 148.236 18.776C149.004 18.512 149.628 18.212 150.108 17.876C150.612 17.54 150.864 17.096 150.864 16.544V14.312C150.864 13.304 150.708 12.536 150.396 12.008C150.108 11.48 149.712 11.132 149.208 10.964C148.704 10.772 148.14 10.676 147.516 10.676C146.916 10.676 146.268 10.76 145.572 10.928C144.9 11.096 144.36 11.444 143.952 11.972C144.408 12.068 144.804 12.308 145.14 12.692C145.476 13.076 145.644 13.568 145.644 14.168C145.644 14.768 145.452 15.248 145.068 15.608C144.684 15.944 144.192 16.112 143.592 16.112C142.896 16.112 142.38 15.896 142.044 15.464C141.732 15.008 141.576 14.504 141.576 13.952C141.576 13.328 141.732 12.824 142.044 12.44C142.356 12.056 142.752 11.696 143.232 11.36C143.784 10.976 144.492 10.652 145.356 10.388C146.244 10.1 147.24 9.956 148.344 9.956C149.328 9.956 150.168 10.076 150.864 10.316C151.56 10.532 152.136 10.856 152.592 11.288C153.216 11.864 153.624 12.572 153.816 13.412C154.008 14.228 154.104 15.212 154.104 16.364V26.372C154.104 26.972 154.188 27.404 154.356 27.668C154.548 27.932 154.836 28.064 155.22 28.064C155.484 28.064 155.736 28.004 155.976 27.884C156.216 27.764 156.504 27.572 156.84 27.308L157.236 27.92C156.732 28.304 156.252 28.628 155.796 28.892C155.34 29.132 154.728 29.252 153.96 29.252C153.264 29.252 152.688 29.132 152.232 28.892C151.776 28.652 151.428 28.304 151.188 27.848C150.972 27.368 150.864 26.768 150.864 26.048C150.216 27.128 149.436 27.932 148.524 28.46C147.636 28.988 146.628 29.252 145.5 29.252ZM146.796 27.812C147.588 27.812 148.32 27.584 148.992 27.128C149.688 26.672 150.312 25.988 150.864 25.076V18.02C150.576 18.428 150.156 18.776 149.604 19.064C149.052 19.328 148.452 19.604 147.804 19.892C147.156 20.156 146.532 20.48 145.932 20.864C145.356 21.224 144.876 21.704 144.492 22.304C144.108 22.904 143.916 23.684 143.916 24.644C143.916 25.604 144.168 26.372 144.672 26.948C145.2 27.524 145.908 27.812 146.796 27.812ZM170.413 9.956C171.325 9.956 172.081 10.076 172.681 10.316C173.305 10.556 173.821 10.892 174.229 11.324C174.685 11.804 175.009 12.404 175.201 13.124C175.393 13.844 175.489 14.816 175.489 16.04V25.652C175.489 26.66 175.693 27.344 176.101 27.704C176.533 28.064 177.241 28.244 178.225 28.244V29C177.817 28.976 177.193 28.952 176.353 28.928C175.513 28.88 174.697 28.856 173.905 28.856C173.113 28.856 172.333 28.88 171.565 28.928C170.821 28.952 170.257 28.976 169.873 29V28.244C170.737 28.244 171.349 28.064 171.709 27.704C172.069 27.344 172.249 26.66 172.249 25.652V15.248C172.249 14.504 172.189 13.82 172.069 13.196C171.949 12.572 171.673 12.068 171.241 11.684C170.833 11.3 170.197 11.108 169.333 11.108C168.325 11.108 167.437 11.396 166.669 11.972C165.925 12.548 165.337 13.34 164.905 14.348C164.497 15.332 164.293 16.436 164.293 17.66V25.652C164.293 26.66 164.473 27.344 164.833 27.704C165.193 28.064 165.805 28.244 166.669 28.244V29C166.285 28.976 165.709 28.952 164.941 28.928C164.197 28.88 163.429 28.856 162.637 28.856C161.845 28.856 161.029 28.88 160.189 28.928C159.349 28.952 158.725 28.976 158.317 29V28.244C159.301 28.244 159.997 28.064 160.405 27.704C160.837 27.344 161.053 26.66 161.053 25.652V14.384C161.053 13.304 160.861 12.512 160.477 12.008C160.093 11.48 159.373 11.216 158.317 11.216V10.46C159.085 10.532 159.829 10.568 160.549 10.568C161.245 10.568 161.905 10.532 162.529 10.46C163.177 10.364 163.765 10.232 164.293 10.064V14.312C164.917 12.68 165.781 11.552 166.885 10.928C168.013 10.28 169.189 9.956 170.413 9.956Z" fill="black"/>
</svg>
